<?xml version="1.0" encoding="UTF-8"?>
<!DOCTYPE svg PUBLIC "-//W3C//DTD SVG 1.1//EN" "http://www.w3.org/Graphics/SVG/1.1/DTD/svg11.dtd">
<svg xmlns="http://www.w3.org/2000/svg" version="1.1" width="342px" height="339px" style="shape-rendering:geometricPrecision; text-rendering:geometricPrecision; image-rendering:optimizeQuality; fill-rule:evenodd; clip-rule:evenodd" xmlns:xlink="http://www.w3.org/1999/xlink">
<g><path style="opacity:1" fill="#191721" d="M -0.5,-0.5 C 113.5,-0.5 227.5,-0.5 341.5,-0.5C 341.5,112.5 341.5,225.5 341.5,338.5C 227.5,338.5 113.5,338.5 -0.5,338.5C -0.5,225.5 -0.5,112.5 -0.5,-0.5 Z"/></g>
<g><path style="opacity:1" fill="#8ae4f2" d="M 149.5,59.5 C 175.901,58.8618 202.235,59.6952 228.5,62C 227.167,62.3333 225.833,62.6667 224.5,63C 230.666,65.2575 230.666,66.4241 224.5,66.5C 188.167,66.5 151.833,66.5 115.5,66.5C 124.658,65.6701 133.991,65.1701 143.5,65C 143.167,64.6667 142.833,64.3333 142.5,64C 146.804,63.9691 150.804,62.9691 154.5,61C 152.618,60.8019 150.952,60.3019 149.5,59.5 Z"/></g>
<g><path style="opacity:1" fill="#aaf1f5" d="M 109.5,59.5 C 110.167,59.5 110.833,59.5 111.5,59.5C 124.167,59.5 136.833,59.5 149.5,59.5C 150.952,60.3019 152.618,60.8019 154.5,61C 150.804,62.9691 146.804,63.9691 142.5,64C 142.833,64.3333 143.167,64.6667 143.5,65C 133.991,65.1701 124.658,65.6701 115.5,66.5C 112.833,66.8333 110.167,67.1667 107.5,67.5C 106.957,67.44 106.624,67.1067 106.5,66.5C 107.5,65.8333 108.5,65.1667 109.5,64.5C 107.234,63.6858 104.9,63.1858 102.5,63C 105.069,62.1016 107.402,60.935 109.5,59.5 Z"/></g>
<g><path style="opacity:1" fill="#272a38" d="M 115.5,66.5 C 151.833,66.5 188.167,66.5 224.5,66.5C 224.5,66.8333 224.5,67.1667 224.5,67.5C 199.77,67.0811 175.103,67.7478 150.5,69.5C 144.896,68.5456 139.229,68.2123 133.5,68.5C 133.5,69.5 133.5,70.5 133.5,71.5C 128.206,71.6822 128.206,72.1822 133.5,73C 136.894,73.7517 140.227,73.5851 143.5,72.5C 144.696,72.8457 144.696,73.3457 143.5,74C 150.864,74.7649 158.197,74.5982 165.5,73.5C 168.054,73.9804 170.388,74.9804 172.5,76.5C 173.167,76.3333 173.833,76.1667 174.5,76C 173.304,75.3457 173.304,74.8457 174.5,74.5C 178.064,75.1081 181.397,76.2748 184.5,78C 187.833,78.3333 191.167,78.6667 194.5,79C 193.5,79.3333 192.5,79.6667 191.5,80C 192.694,82.6578 191.694,83.8244 188.5,83.5C 188.5,84.5 188.5,85.5 188.5,86.5C 189.552,86.3505 190.552,86.5172 191.5,87C 186.553,88.2915 182.053,90.4582 178,93.5C 176.562,92.2815 174.895,91.6148 173,91.5C 170.593,92.6296 168.093,93.463 165.5,94C 166.624,94.2492 167.624,94.7492 168.5,95.5C 164.162,99.7168 159.995,103.383 156,106.5C 155.667,106.167 155.333,105.833 155,105.5C 154.29,106.973 153.124,107.64 151.5,107.5C 150.156,111.168 147.49,113.501 143.5,114.5C 142.756,115.991 142.09,117.491 141.5,119C 139.65,118.405 137.65,117.905 135.5,117.5C 135.64,119.124 134.973,120.29 133.5,121C 135.502,122.019 137.502,122.852 139.5,123.5C 136.15,123.335 132.817,123.502 129.5,124C 128.944,124.383 128.611,124.883 128.5,125.5C 126.926,127.102 126.259,129.102 126.5,131.5C 125.549,132.919 125.216,134.585 125.5,136.5C 123.5,136.5 121.5,136.5 119.5,136.5C 118.459,133.609 117.126,130.942 115.5,128.5C 110.821,128.334 106.155,128.501 101.5,129C 100.748,129.671 100.414,130.504 100.5,131.5C 99.0549,133.571 98.0549,135.904 97.5,138.5C 96.1164,143.944 95.4497,149.611 95.5,155.5C 93.8333,155.5 92.1667,155.5 90.5,155.5C 86.2984,155.183 82.2984,155.517 78.5,156.5C 77.6618,156.842 77.3284,157.508 77.5,158.5C 76.207,159.842 75.3736,161.509 75,163.5C 74.6667,163.167 74.3333,162.833 74,162.5C 72.2591,163.758 70.4258,164.758 68.5,165.5C 68.5,148.5 68.5,131.5 68.5,114.5C 68.5,114.167 68.5,113.833 68.5,113.5C 69.4098,111.981 70.2432,110.315 71,108.5C 71.7886,112.091 71.6219,115.591 70.5,119C 71.5608,120.849 72.2275,122.849 72.5,125C 71.5505,127.235 71.5505,129.402 72.5,131.5C 75.5836,134.195 79.2503,135.528 83.5,135.5C 83.5,132.167 85.1667,130.5 88.5,130.5C 86.1483,125.977 85.815,123.977 87.5,124.5C 88.5,124.5 89.5,124.5 90.5,124.5C 90.5,123.167 90.5,121.833 90.5,120.5C 91.5,120.5 92.5,120.5 93.5,120.5C 95.6976,116.626 98.6976,113.292 102.5,110.5C 103.386,109.675 103.719,108.675 103.5,107.5C 106.875,106.374 109.042,104.041 110,100.5C 110.414,100.957 110.914,101.291 111.5,101.5C 112.524,100.147 113.857,99.4802 115.5,99.5C 116.201,97.0916 117.201,94.7582 118.5,92.5C 119.736,93.2458 121.07,93.5792 122.5,93.5C 122.859,89.0699 125.193,86.7366 129.5,86.5C 129.833,84.5 130.167,82.5 130.5,80.5C 126.993,78.3794 123.16,77.0461 119,76.5C 105.756,74.561 94.5894,78.3943 85.5,88C 83.3849,88.5362 82.0516,87.7029 81.5,85.5C 83.4118,82.0253 86.0785,79.1919 89.5,77C 95.4335,73.5324 101.434,70.3657 107.5,67.5C 110.167,67.1667 112.833,66.8333 115.5,66.5 Z"/></g>
<g><path style="opacity:1" fill="#2c2f3b" d="M 68.5,113.5 C 69.6311,102.577 73.9645,93.2433 81.5,85.5C 82.0516,87.7029 83.3849,88.5362 85.5,88C 94.5894,78.3943 105.756,74.561 119,76.5C 123.16,77.0461 126.993,78.3794 130.5,80.5C 130.167,82.5 129.833,84.5 129.5,86.5C 125.193,86.7366 122.859,89.0699 122.5,93.5C 121.07,93.5792 119.736,93.2458 118.5,92.5C 117.201,94.7582 116.201,97.0916 115.5,99.5C 113.857,99.4802 112.524,100.147 111.5,101.5C 110.914,101.291 110.414,100.957 110,100.5C 109.042,104.041 106.875,106.374 103.5,107.5C 103.719,108.675 103.386,109.675 102.5,110.5C 98.6976,113.292 95.6976,116.626 93.5,120.5C 92.5,120.5 91.5,120.5 90.5,120.5C 90.5,121.833 90.5,123.167 90.5,124.5C 89.5,124.5 88.5,124.5 87.5,124.5C 85.815,123.977 86.1483,125.977 88.5,130.5C 85.1667,130.5 83.5,132.167 83.5,135.5C 79.2503,135.528 75.5836,134.195 72.5,131.5C 71.5505,129.402 71.5505,127.235 72.5,125C 72.2275,122.849 71.5608,120.849 70.5,119C 71.6219,115.591 71.7886,112.091 71,108.5C 70.2432,110.315 69.4098,111.981 68.5,113.5 Z"/></g>
<g><path style="opacity:1" fill="#1e202c" d="M 229.5,67.5 C 255.254,73.2573 269.921,89.2573 273.5,115.5C 273.5,134.5 273.5,153.5 273.5,172.5C 271.972,168.83 269.472,165.83 266,163.5C 262.178,153.251 255.678,144.418 246.5,137C 245.184,136.472 244.517,136.972 244.5,138.5C 244.068,134.807 242.401,131.64 239.5,129C 234.845,128.501 230.179,128.334 225.5,128.5C 224.599,129.29 223.932,130.29 223.5,131.5C 221.787,132.635 221.12,134.302 221.5,136.5C 219.5,136.5 217.5,136.5 215.5,136.5C 215.371,134.784 215.038,133.117 214.5,131.5C 213.945,128.904 212.945,126.571 211.5,124.5C 211.158,123.662 210.492,123.328 209.5,123.5C 209.082,122.778 208.416,122.278 207.5,122C 207.833,121.667 208.167,121.333 208.5,121C 207.062,120.781 205.729,120.281 204.5,119.5C 206.557,117.523 208.891,116.023 211.5,115C 211.167,114.667 210.833,114.333 210.5,114C 211.274,111.595 211.774,109.095 212,106.5C 214.172,105.491 215.338,103.824 215.5,101.5C 219.159,100.685 221.826,98.5187 223.5,95C 222.737,94.0565 221.737,93.5565 220.5,93.5C 218.547,94.1556 216.547,94.4889 214.5,94.5C 214.5,96.5 214.5,98.5 214.5,100.5C 211.833,100.5 209.167,100.5 206.5,100.5C 206.5,98.1667 206.5,95.8333 206.5,93.5C 203.833,93.5 201.167,93.5 198.5,93.5C 198.354,91.0576 199.187,90.3909 201,91.5C 205,90.8333 207.333,88.5 208,84.5C 209.011,83.6634 210.178,83.33 211.5,83.5C 212.211,87.7393 210.544,90.4059 206.5,91.5C 207.347,92.8448 208.513,93.8448 210,94.5C 213.611,92.5265 216.777,90.0265 219.5,87C 221.473,86.5045 223.473,86.3379 225.5,86.5C 225.5,85.1667 225.5,83.8333 225.5,82.5C 228.252,82.578 230.918,82.7446 233.5,83C 234.167,82.3333 234.833,81.6667 235.5,81C 229.497,77.6889 223.33,77.1889 217,79.5C 215.667,78.1667 214.333,76.8333 213,75.5C 208.535,74.5057 204.035,73.6724 199.5,73C 200.308,72.6924 200.975,72.1924 201.5,71.5C 198.253,70.3503 194.92,69.517 191.5,69C 204.34,68.8309 217.007,68.3309 229.5,67.5 Z"/></g>
<g><path style="opacity:1" fill="#212332" d="M 224.5,67.5 C 226.167,67.5 227.833,67.5 229.5,67.5C 217.007,68.3309 204.34,68.8309 191.5,69C 194.92,69.517 198.253,70.3503 201.5,71.5C 200.975,72.1924 200.308,72.6924 199.5,73C 204.035,73.6724 208.535,74.5057 213,75.5C 214.333,76.8333 215.667,78.1667 217,79.5C 223.33,77.1889 229.497,77.6889 235.5,81C 234.833,81.6667 234.167,82.3333 233.5,83C 230.918,82.7446 228.252,82.578 225.5,82.5C 225.5,83.8333 225.5,85.1667 225.5,86.5C 223.473,86.3379 221.473,86.5045 219.5,87C 216.777,90.0265 213.611,92.5265 210,94.5C 208.513,93.8448 207.347,92.8448 206.5,91.5C 210.544,90.4059 212.211,87.7393 211.5,83.5C 210.178,83.33 209.011,83.6634 208,84.5C 207.333,88.5 205,90.8333 201,91.5C 199.187,90.3909 198.354,91.0576 198.5,93.5C 201.167,93.5 203.833,93.5 206.5,93.5C 206.5,95.8333 206.5,98.1667 206.5,100.5C 209.167,100.5 211.833,100.5 214.5,100.5C 214.5,98.5 214.5,96.5 214.5,94.5C 216.547,94.4889 218.547,94.1556 220.5,93.5C 221.737,93.5565 222.737,94.0565 223.5,95C 221.826,98.5187 219.159,100.685 215.5,101.5C 215.338,103.824 214.172,105.491 212,106.5C 211.774,109.095 211.274,111.595 210.5,114C 210.833,114.333 211.167,114.667 211.5,115C 208.891,116.023 206.557,117.523 204.5,119.5C 205.729,120.281 207.062,120.781 208.5,121C 208.167,121.333 207.833,121.667 207.5,122C 208.416,122.278 209.082,122.778 209.5,123.5C 206.167,123.5 202.833,123.5 199.5,123.5C 198.03,126.949 196.864,130.616 196,134.5C 195.796,141.217 195.296,147.883 194.5,154.5C 194.624,155.107 194.957,155.44 195.5,155.5C 181.205,157.483 166.538,158.15 151.5,157.5C 149.167,157.5 146.833,157.5 144.5,157.5C 144.768,155.901 144.434,154.568 143.5,153.5C 143.5,150.5 143.5,147.5 143.5,144.5C 143.666,139.489 143.499,134.489 143,129.5C 142.901,127.347 142.067,125.681 140.5,124.5C 140.5,123.833 140.167,123.5 139.5,123.5C 137.502,122.852 135.502,122.019 133.5,121C 134.973,120.29 135.64,119.124 135.5,117.5C 137.65,117.905 139.65,118.405 141.5,119C 142.09,117.491 142.756,115.991 143.5,114.5C 147.49,113.501 150.156,111.168 151.5,107.5C 153.124,107.64 154.29,106.973 155,105.5C 155.333,105.833 155.667,106.167 156,106.5C 159.995,103.383 164.162,99.7168 168.5,95.5C 167.624,94.7492 166.624,94.2492 165.5,94C 168.093,93.463 170.593,92.6296 173,91.5C 174.895,91.6148 176.562,92.2815 178,93.5C 182.053,90.4582 186.553,88.2915 191.5,87C 190.552,86.5172 189.552,86.3505 188.5,86.5C 188.5,85.5 188.5,84.5 188.5,83.5C 191.694,83.8244 192.694,82.6578 191.5,80C 192.5,79.6667 193.5,79.3333 194.5,79C 191.167,78.6667 187.833,78.3333 184.5,78C 181.397,76.2748 178.064,75.1081 174.5,74.5C 173.304,74.8457 173.304,75.3457 174.5,76C 173.833,76.1667 173.167,76.3333 172.5,76.5C 170.388,74.9804 168.054,73.9804 165.5,73.5C 158.197,74.5982 150.864,74.7649 143.5,74C 144.696,73.3457 144.696,72.8457 143.5,72.5C 140.227,73.5851 136.894,73.7517 133.5,73C 128.206,72.1822 128.206,71.6822 133.5,71.5C 133.5,70.5 133.5,69.5 133.5,68.5C 139.229,68.2123 144.896,68.5456 150.5,69.5C 175.103,67.7478 199.77,67.0811 224.5,67.5 Z"/></g>
<g><path style="opacity:1" fill="#c0eef3" d="M 109.5,59.5 C 107.402,60.935 105.069,62.1016 102.5,63C 104.9,63.1858 107.234,63.6858 109.5,64.5C 108.5,65.1667 107.5,65.8333 106.5,66.5C 106.624,67.1067 106.957,67.44 107.5,67.5C 101.434,70.3657 95.4335,73.5324 89.5,77C 86.0785,79.1919 83.4118,82.0253 81.5,85.5C 73.9645,93.2433 69.6311,102.577 68.5,113.5C 68.5,113.833 68.5,114.167 68.5,114.5C 67.6682,133.329 67.1682,152.329 67,171.5C 65.208,169.013 63.708,166.346 62.5,163.5C 61.5004,144.845 61.1671,126.179 61.5,107.5C 67.8472,81.8195 83.8472,65.8195 109.5,59.5 Z"/></g>
<g><path style="opacity:1" fill="#17141d" d="M 77.5,256.5 C 80.9343,260.269 84.9343,263.269 89.5,265.5C 94.3161,269.111 99.6494,271.778 105.5,273.5C 107.564,273.687 109.564,274.187 111.5,275C 140.498,275.5 169.498,275.667 198.5,275.5C 210.543,275.838 222.543,275.338 234.5,274C 240.343,272.343 245.677,269.843 250.5,266.5C 252.853,265.66 254.853,264.326 256.5,262.5C 266.081,254.734 273.248,245.068 278,233.5C 278.9,229.166 279.734,224.832 280.5,220.5C 280.5,213.833 280.5,207.167 280.5,200.5C 280.5,196.833 280.5,193.167 280.5,189.5C 280.5,180.5 280.5,171.5 280.5,162.5C 280.83,143.326 280.497,124.326 279.5,105.5C 279.5,104.5 279.5,103.5 279.5,102.5C 280.659,100.623 282.326,100.123 284.5,101C 281.999,103.399 281.999,105.899 284.5,108.5C 283.294,110.516 283.294,112.516 284.5,114.5C 285.135,111.028 286.135,107.695 287.5,104.5C 288.318,107.107 288.818,109.774 289,112.5C 289.667,113.167 290.333,113.833 291,114.5C 293.016,126.731 294.016,139.064 294,151.5C 294.333,152.167 294.667,152.833 295,153.5C 294.857,149.534 296.691,147.534 300.5,147.5C 300.322,150.216 299.822,152.883 299,155.5C 295.59,156.874 295.757,157.541 299.5,157.5C 300.634,173.705 300.634,190.038 299.5,206.5C 298.575,207.641 297.741,207.641 297,206.5C 296.833,207.333 296.667,208.167 296.5,209C 298.475,211.146 299.809,213.646 300.5,216.5C 298.942,222.659 297.942,228.992 297.5,235.5C 297.76,237.187 298.427,238.687 299.5,240C 298.552,240.483 297.552,240.649 296.5,240.5C 296.663,242.857 296.497,245.19 296,247.5C 294.228,250.572 293.061,253.905 292.5,257.5C 289.658,261.857 286.825,266.19 284,270.5C 283.505,272.473 283.338,274.473 283.5,276.5C 279.5,276.833 279.5,277.167 283.5,277.5C 283.662,279.527 283.495,281.527 283,283.5C 282.667,282.833 282.333,282.167 282,281.5C 281.5,282.667 280.667,283.5 279.5,284C 277.1,284.186 274.766,284.686 272.5,285.5C 270.942,287.554 268.942,289.054 266.5,290C 268.901,290.805 268.734,291.638 266,292.5C 265.383,293.449 265.549,294.282 266.5,295C 264.687,294.954 263.021,295.12 261.5,295.5C 260.098,296.842 260.431,297.676 262.5,298C 259.8,298.253 257.133,298.253 254.5,298C 253.107,299.171 252.273,300.671 252,302.5C 249.724,299.936 247.724,300.27 246,303.5C 243.619,302.565 241.119,302.232 238.5,302.5C 238.5,301.5 238.5,300.5 238.5,299.5C 236.5,299.5 234.5,299.5 232.5,299.5C 232.297,301.638 231.297,303.305 229.5,304.5C 230.025,305.192 230.692,305.692 231.5,306C 229.167,306.667 226.833,306.667 224.5,306C 226.913,303.357 226.08,302.191 222,302.5C 219.657,302.682 217.824,303.682 216.5,305.5C 215.614,304.675 215.281,303.675 215.5,302.5C 209.463,302.829 203.463,302.496 197.5,301.5C 197.192,300.692 196.692,300.025 196,299.5C 191.879,300.139 187.713,300.805 183.5,301.5C 187.167,302.167 190.833,302.833 194.5,303.5C 192.167,303.833 189.833,304.167 187.5,304.5C 181.883,303.53 176.216,302.863 170.5,302.5C 170.5,303.5 170.5,304.5 170.5,305.5C 169.07,305.421 167.736,305.754 166.5,306.5C 164.182,301.587 161.349,301.254 158,305.5C 157,304.167 156,304.167 155,305.5C 154.085,304.672 153.419,303.672 153,302.5C 152.626,303.416 152.126,304.25 151.5,305C 140.28,306.367 129.614,304.7 119.5,300C 118.167,299.333 118.167,298.667 119.5,298C 116.123,297.548 112.789,296.882 109.5,296C 109.833,295.667 110.167,295.333 110.5,295C 108.144,294.845 105.811,294.845 103.5,295C 104.672,294.581 105.672,293.915 106.5,293C 103.441,292.355 100.441,291.522 97.5,290.5C 95.4381,288.908 95.1048,287.075 96.5,285C 95.5473,281.047 93.0473,278.881 89,278.5C 88.7508,279.624 88.2508,280.624 87.5,281.5C 85.9841,278.82 83.9841,276.653 81.5,275C 81.8333,274.667 82.1667,274.333 82.5,274C 81.552,273.517 80.552,273.351 79.5,273.5C 79.6602,271.801 79.4935,270.134 79,268.5C 76.4994,268.05 74.3328,267.05 72.5,265.5C 74.2603,262.788 74.927,259.788 74.5,256.5C 75.5,256.5 76.5,256.5 77.5,256.5 Z"/></g>
<g><path style="opacity:1" fill="#89ddee" d="M 111.5,59.5 C 131.331,58.8334 151.331,58.5 171.5,58.5C 192.882,58.3555 214.215,58.8555 235.5,60C 257.003,67.2234 271.67,81.39 279.5,102.5C 279.5,103.5 279.5,104.5 279.5,105.5C 279.665,109.182 279.499,112.848 279,116.5C 277.691,118.891 276.691,118.891 276,116.5C 275.667,117.5 275.333,118.5 275,119.5C 274.79,117.942 274.29,116.609 273.5,115.5C 269.921,89.2573 255.254,73.2573 229.5,67.5C 227.833,67.5 226.167,67.5 224.5,67.5C 224.5,67.1667 224.5,66.8333 224.5,66.5C 230.666,66.4241 230.666,65.2575 224.5,63C 225.833,62.6667 227.167,62.3333 228.5,62C 202.235,59.6952 175.901,58.8618 149.5,59.5C 136.833,59.5 124.167,59.5 111.5,59.5 Z"/></g>
<g><path style="opacity:1" fill="#9ddaee" d="M 279.5,105.5 C 280.497,124.326 280.83,143.326 280.5,162.5C 279.835,164.698 279.168,167.031 278.5,169.5C 277.201,170.694 275.868,171.694 274.5,172.5C 274.167,172.5 273.833,172.5 273.5,172.5C 273.5,153.5 273.5,134.5 273.5,115.5C 274.29,116.609 274.79,117.942 275,119.5C 275.333,118.5 275.667,117.5 276,116.5C 276.691,118.891 277.691,118.891 279,116.5C 279.499,112.848 279.665,109.182 279.5,105.5 Z"/></g>
<g><path style="opacity:1" fill="#b8ebf6" d="M 139.5,123.5 C 140.167,123.5 140.5,123.833 140.5,124.5C 136.6,125.43 132.6,125.763 128.5,125.5C 128.611,124.883 128.944,124.383 129.5,124C 132.817,123.502 136.15,123.335 139.5,123.5 Z"/></g>
<g><path style="opacity:1" fill="#bbecf7" d="M 199.5,123.5 C 202.833,123.5 206.167,123.5 209.5,123.5C 210.492,123.328 211.158,123.662 211.5,124.5C 208.038,125.482 204.371,125.815 200.5,125.5C 200.167,124.833 199.833,124.167 199.5,123.5 Z"/></g>
<g><path style="opacity:1" fill="#57c1f4" d="M 211.5,124.5 C 212.945,126.571 213.945,128.904 214.5,131.5C 210.5,131.5 206.5,131.5 202.5,131.5C 202.5,133.5 202.5,135.5 202.5,137.5C 201.622,133.664 200.956,129.664 200.5,125.5C 204.371,125.815 208.038,125.482 211.5,124.5 Z"/></g>
<g><path style="opacity:1" fill="#61c2f1" d="M 140.5,124.5 C 140.324,127.727 139.657,130.727 138.5,133.5C 138.649,132.448 138.483,131.448 138,130.5C 134.27,131.46 130.437,131.793 126.5,131.5C 126.259,129.102 126.926,127.102 128.5,125.5C 132.6,125.763 136.6,125.43 140.5,124.5 Z"/></g>
<g><path style="opacity:1" fill="#75c3f3" d="M 115.5,128.5 C 114.87,130.75 113.87,132.75 112.5,134.5C 109.375,133.521 106.042,133.187 102.5,133.5C 101.167,133.5 100.5,132.833 100.5,131.5C 100.414,130.504 100.748,129.671 101.5,129C 106.155,128.501 110.821,128.334 115.5,128.5 Z"/></g>
<g><path style="opacity:1" fill="#7df0f9" d="M 138.5,133.5 C 137.588,139.131 136.921,144.798 136.5,150.5C 135.527,152.948 135.194,155.615 135.5,158.5C 131.833,158.5 128.167,158.5 124.5,158.5C 124.5,153.833 124.5,149.167 124.5,144.5C 124.575,141.794 124.908,139.127 125.5,136.5C 125.216,134.585 125.549,132.919 126.5,131.5C 130.437,131.793 134.27,131.46 138,130.5C 138.483,131.448 138.649,132.448 138.5,133.5 Z"/></g>
<g><path style="opacity:1" fill="#22457e" d="M 225.5,128.5 C 226.692,130.113 227.692,131.78 228.5,133.5C 229.11,134.391 229.443,135.391 229.5,136.5C 229.717,140.705 230.383,144.705 231.5,148.5C 231.5,151.5 231.5,154.5 231.5,157.5C 230.662,152.214 229.495,146.881 228,141.5C 227.296,139.273 226.129,138.94 224.5,140.5C 222.238,137.819 221.904,134.819 223.5,131.5C 223.932,130.29 224.599,129.29 225.5,128.5 Z"/></g>
<g><path style="opacity:1" fill="#65c9f2" d="M 225.5,128.5 C 230.179,128.334 234.845,128.501 239.5,129C 242.401,131.64 244.068,134.807 244.5,138.5C 244.5,139.833 244.5,141.167 244.5,142.5C 243.236,147.722 242.569,153.055 242.5,158.5C 238.833,158.5 235.167,158.5 231.5,158.5C 231.5,158.167 231.5,157.833 231.5,157.5C 231.5,154.5 231.5,151.5 231.5,148.5C 232.477,151.287 232.81,154.287 232.5,157.5C 235.167,157.5 237.833,157.5 240.5,157.5C 240.5,154.167 240.5,150.833 240.5,147.5C 240.948,142.959 240.281,138.626 238.5,134.5C 235.696,133.695 232.862,133.028 230,132.5C 229.235,132.57 228.735,132.903 228.5,133.5C 227.692,131.78 226.692,130.113 225.5,128.5 Z"/></g>
<g><path style="opacity:1" fill="#85f1fc" d="M 240.5,147.5 C 238.198,148.822 235.865,148.822 233.5,147.5C 232.17,143.761 230.837,140.095 229.5,136.5C 229.443,135.391 229.11,134.391 228.5,133.5C 228.735,132.903 229.235,132.57 230,132.5C 232.862,133.028 235.696,133.695 238.5,134.5C 240.281,138.626 240.948,142.959 240.5,147.5 Z"/></g>
<g><path style="opacity:1" fill="#85f1fb" d="M 214.5,131.5 C 215.038,133.117 215.371,134.784 215.5,136.5C 215.5,139.833 215.5,143.167 215.5,146.5C 215.5,150.5 215.5,154.5 215.5,158.5C 211.833,158.5 208.167,158.5 204.5,158.5C 204.784,156.585 204.451,154.919 203.5,153.5C 203.818,148.968 203.485,144.634 202.5,140.5C 202.5,139.5 202.5,138.5 202.5,137.5C 202.5,135.5 202.5,133.5 202.5,131.5C 206.5,131.5 210.5,131.5 214.5,131.5 Z"/></g>
<g><path style="opacity:1" fill="#3d66a3" d="M 140.5,124.5 C 142.067,125.681 142.901,127.347 143,129.5C 143.499,134.489 143.666,139.489 143.5,144.5C 142.596,143.791 142.263,142.791 142.5,141.5C 141.178,141.67 140.011,141.337 139,140.5C 137.621,151.445 137.121,162.445 137.5,173.5C 137.167,173.5 136.833,173.5 136.5,173.5C 136.5,165.833 136.5,158.167 136.5,150.5C 136.921,144.798 137.588,139.131 138.5,133.5C 139.657,130.727 140.324,127.727 140.5,124.5 Z"/></g>
<g><path style="opacity:1" fill="#294e87" d="M 115.5,128.5 C 117.126,130.942 118.459,133.609 119.5,136.5C 119.5,136.833 119.5,137.167 119.5,137.5C 118.313,139.072 117.313,140.739 116.5,142.5C 114.989,143.502 113.322,144.169 111.5,144.5C 111.5,143.5 111.5,142.5 111.5,141.5C 111.448,139.097 111.781,136.764 112.5,134.5C 113.87,132.75 114.87,130.75 115.5,128.5 Z"/></g>
<g><path style="opacity:1" fill="#3e64a1" d="M 199.5,123.5 C 199.833,124.167 200.167,124.833 200.5,125.5C 200.956,129.664 201.622,133.664 202.5,137.5C 202.5,138.5 202.5,139.5 202.5,140.5C 201.558,149.855 201.558,159.188 202.5,168.5C 201.833,166.833 201.167,165.167 200.5,163.5C 199.952,161.374 199.285,159.374 198.5,157.5C 198.332,154.949 197.332,154.282 195.5,155.5C 194.957,155.44 194.624,155.107 194.5,154.5C 195.296,147.883 195.796,141.217 196,134.5C 196.864,130.616 198.03,126.949 199.5,123.5 Z"/></g>
<g><path style="opacity:1" fill="#1f3568" d="M 116.5,142.5 C 116.296,145.518 115.963,148.518 115.5,151.5C 114.654,154.679 112.988,157.346 110.5,159.5C 110.5,157.167 110.5,154.833 110.5,152.5C 110.401,149.763 110.735,147.096 111.5,144.5C 113.322,144.169 114.989,143.502 116.5,142.5 Z"/></g>
<g><path style="opacity:1" fill="#8a8ba0" d="M 118.5,146.5 C 119.794,148.048 120.461,150.048 120.5,152.5C 119.934,159.495 119.434,166.495 119,173.5C 118.617,172.944 118.117,172.611 117.5,172.5C 117.289,163.8 117.623,155.133 118.5,146.5 Z"/></g>
<g><path style="opacity:1" fill="#6de9f9" d="M 102.5,133.5 C 106.042,133.187 109.375,133.521 112.5,134.5C 111.781,136.764 111.448,139.097 111.5,141.5C 109.982,144.534 109.149,147.867 109,151.5C 108.333,152.833 107.667,154.167 107,155.5C 106.667,155.167 106.333,154.833 106,154.5C 105.517,155.448 105.351,156.448 105.5,157.5C 103.833,157.5 102.167,157.5 100.5,157.5C 100.174,149.366 100.841,141.366 102.5,133.5 Z"/></g>
<g><path style="opacity:1" fill="#abaec4" d="M 141.5,153.5 C 142.167,153.5 142.833,153.5 143.5,153.5C 144.434,154.568 144.768,155.901 144.5,157.5C 146.833,157.5 149.167,157.5 151.5,157.5C 151.5,158.167 151.5,158.833 151.5,159.5C 149.409,159.682 147.409,159.348 145.5,158.5C 144.571,159.689 144.238,161.022 144.5,162.5C 143.5,162.5 142.5,162.5 141.5,162.5C 141.5,159.5 141.5,156.5 141.5,153.5 Z"/></g>
<g><path style="opacity:1" fill="#383e58" d="M 119.5,136.5 C 121.5,136.5 123.5,136.5 125.5,136.5C 124.908,139.127 124.575,141.794 124.5,144.5C 123.566,145.568 123.232,146.901 123.5,148.5C 121.269,157.562 119.936,166.895 119.5,176.5C 118.295,175.423 117.628,174.09 117.5,172.5C 118.117,172.611 118.617,172.944 119,173.5C 119.434,166.495 119.934,159.495 120.5,152.5C 120.461,150.048 119.794,148.048 118.5,146.5C 119.299,143.57 119.632,140.57 119.5,137.5C 119.5,137.167 119.5,136.833 119.5,136.5 Z"/></g>
<g><path style="opacity:1" fill="#61ddf8" d="M 229.5,136.5 C 230.837,140.095 232.17,143.761 233.5,147.5C 235.865,148.822 238.198,148.822 240.5,147.5C 240.5,150.833 240.5,154.167 240.5,157.5C 237.833,157.5 235.167,157.5 232.5,157.5C 232.81,154.287 232.477,151.287 231.5,148.5C 230.383,144.705 229.717,140.705 229.5,136.5 Z"/></g>
<g><path style="opacity:1" fill="#61d6f4" d="M 100.5,131.5 C 100.5,132.833 101.167,133.5 102.5,133.5C 100.841,141.366 100.174,149.366 100.5,157.5C 102.167,157.5 103.833,157.5 105.5,157.5C 105.351,156.448 105.517,155.448 106,154.5C 106.333,154.833 106.667,155.167 107,155.5C 107.667,154.167 108.333,152.833 109,151.5C 109.149,147.867 109.982,144.534 111.5,141.5C 111.5,142.5 111.5,143.5 111.5,144.5C 110.735,147.096 110.401,149.763 110.5,152.5C 109.539,154.265 109.205,156.265 109.5,158.5C 106.167,158.5 102.833,158.5 99.5,158.5C 99.6662,152.158 99.4995,145.825 99,139.5C 97.9125,141.932 97.4125,141.598 97.5,138.5C 98.0549,135.904 99.0549,133.571 100.5,131.5 Z"/></g>
<g><path style="opacity:1" fill="#e0e4ea" d="M 198.5,157.5 C 198.975,160.082 198.308,162.082 196.5,163.5C 195.833,162.167 195.167,160.833 194.5,159.5C 193.167,159.5 191.833,159.5 190.5,159.5C 177.5,159.5 164.5,159.5 151.5,159.5C 151.5,158.833 151.5,158.167 151.5,157.5C 166.538,158.15 181.205,157.483 195.5,155.5C 197.332,154.282 198.332,154.949 198.5,157.5 Z"/></g>
<g><path style="opacity:1" fill="#4fc2f3" d="M 124.5,144.5 C 124.5,149.167 124.5,153.833 124.5,158.5C 128.167,158.5 131.833,158.5 135.5,158.5C 135.666,162.846 135.499,167.179 135,171.5C 132.711,172.022 130.544,171.355 128.5,169.5C 127.808,170.025 127.308,170.692 127,171.5C 126.581,170.328 125.915,169.328 125,168.5C 124.503,170.81 124.337,173.143 124.5,175.5C 124.167,175.5 123.833,175.5 123.5,175.5C 123.5,166.5 123.5,157.5 123.5,148.5C 123.232,146.901 123.566,145.568 124.5,144.5 Z"/></g>
<g><path style="opacity:1" fill="#252943" d="M 224.5,171.5 C 223.656,175.099 223.323,178.766 223.5,182.5C 222.463,183.93 221.796,185.597 221.5,187.5C 220.883,187.389 220.383,187.056 220,186.5C 219.882,183.629 219.216,180.962 218,178.5C 217.819,181.695 217.319,184.695 216.5,187.5C 216.5,187.167 216.5,186.833 216.5,186.5C 216.5,185.167 216.5,183.833 216.5,182.5C 216.5,180.167 216.5,177.833 216.5,175.5C 216.5,172.833 216.5,170.167 216.5,167.5C 216.5,160.5 216.5,153.5 216.5,146.5C 216.5,143.5 216.5,140.5 216.5,137.5C 217.833,137.5 219.167,137.5 220.5,137.5C 220.593,148.849 221.093,160.182 222,171.5C 222.77,172.598 223.603,172.598 224.5,171.5 Z"/></g>
<g><path style="opacity:1" fill="#171622" d="M 273.5,172.5 C 273.5,187.167 273.5,201.833 273.5,216.5C 273.384,219.86 273.051,223.193 272.5,226.5C 268.966,237.7 262.966,247.367 254.5,255.5C 249.811,258.534 245.144,261.534 240.5,264.5C 236.311,266.118 231.978,267.118 227.5,267.5C 229.148,266.073 231.148,265.24 233.5,265C 225.825,266.436 222.491,266.269 223.5,264.5C 223.757,261.068 224.424,257.734 225.5,254.5C 229.846,254.666 234.179,254.499 238.5,254C 239.337,252.989 239.67,251.822 239.5,250.5C 241.857,250.337 244.19,250.503 246.5,251C 248.14,253.339 250.14,254.172 252.5,253.5C 245.694,250.285 246.027,247.952 253.5,246.5C 253.5,247.833 253.5,249.167 253.5,250.5C 254.5,250.5 255.5,250.5 256.5,250.5C 256.554,247.049 254.887,244.883 251.5,244C 249.69,239.967 251.024,237.8 255.5,237.5C 255.36,231.352 252.36,229.352 246.5,231.5C 247.376,232.251 248.376,232.751 249.5,233C 248.234,233.309 247.067,233.809 246,234.5C 238.017,234.005 229.85,233.505 221.5,233C 219.699,232.683 219.366,232.016 220.5,231C 218.893,229.951 218.227,228.451 218.5,226.5C 215.223,225.577 211.89,224.744 208.5,224C 208.567,217.811 205.901,212.811 200.5,209C 198.744,208.798 197.078,208.298 195.5,207.5C 196.025,206.808 196.692,206.308 197.5,206C 202.864,205.829 208.198,205.329 213.5,204.5C 214.246,203.264 214.579,201.93 214.5,200.5C 215.167,196.167 215.833,191.833 216.5,187.5C 217.319,184.695 217.819,181.695 218,178.5C 219.216,180.962 219.882,183.629 220,186.5C 220.383,187.056 220.883,187.389 221.5,187.5C 222.015,191.299 223.681,194.299 226.5,196.5C 230.846,196.666 235.179,196.499 239.5,196C 240.823,195.184 241.489,194.017 241.5,192.5C 243.783,187.19 245.116,181.524 245.5,175.5C 245.5,175.167 245.5,174.833 245.5,174.5C 248.5,174.5 251.5,174.5 254.5,174.5C 256.792,174.756 258.959,174.423 261,173.5C 261.497,170.854 261.664,168.187 261.5,165.5C 261.5,162.167 261.5,158.833 261.5,155.5C 256.5,155.5 251.5,155.5 246.5,155.5C 245.833,151.167 245.167,146.833 244.5,142.5C 244.5,141.167 244.5,139.833 244.5,138.5C 244.517,136.972 245.184,136.472 246.5,137C 255.678,144.418 262.178,153.251 266,163.5C 269.472,165.83 271.972,168.83 273.5,172.5 Z"/></g>
<g><path style="opacity:1" fill="#6e778e" d="M 215.5,136.5 C 217.5,136.5 219.5,136.5 221.5,136.5C 223.863,148.034 224.863,159.7 224.5,171.5C 223.603,172.598 222.77,172.598 222,171.5C 221.093,160.182 220.593,148.849 220.5,137.5C 219.167,137.5 217.833,137.5 216.5,137.5C 216.5,140.5 216.5,143.5 216.5,146.5C 216.167,146.5 215.833,146.5 215.5,146.5C 215.5,143.167 215.5,139.833 215.5,136.5 Z"/></g>
<g><path style="opacity:1" fill="#42b1e8" d="M 97.5,138.5 C 97.4125,141.598 97.9125,141.932 99,139.5C 99.4995,145.825 99.6662,152.158 99.5,158.5C 102.833,158.5 106.167,158.5 109.5,158.5C 109.5,161.833 109.5,165.167 109.5,168.5C 108.698,167.048 108.198,165.382 108,163.5C 107.727,165.101 107.227,166.601 106.5,168C 103.854,168.497 101.187,168.664 98.5,168.5C 98.7593,166.011 97.7593,164.344 95.5,163.5C 95.5,160.833 95.5,158.167 95.5,155.5C 95.4497,149.611 96.1164,143.944 97.5,138.5 Z"/></g>
<g><path style="opacity:1" fill="#d9dce3" d="M 246.5,155.5 C 251.5,155.5 256.5,155.5 261.5,155.5C 261.5,158.833 261.5,162.167 261.5,165.5C 259.167,165.5 256.833,165.5 254.5,165.5C 252.393,164.532 250.059,164.198 247.5,164.5C 247.632,161.43 247.299,158.43 246.5,155.5 Z"/></g>
<g><path style="opacity:1" fill="#e0e0ea" d="M 90.5,155.5 C 90.5,156.5 90.5,157.5 90.5,158.5C 91.5,158.5 92.5,158.5 93.5,158.5C 93.5,160.5 93.5,162.5 93.5,164.5C 88.5,164.5 83.5,164.5 78.5,164.5C 78.5,161.833 78.5,159.167 78.5,156.5C 82.2984,155.517 86.2984,155.183 90.5,155.5 Z"/></g>
<g><path style="opacity:1" fill="#746d80" d="M 198.5,157.5 C 199.285,159.374 199.952,161.374 200.5,163.5C 200.431,168.854 200.098,174.187 199.5,179.5C 198.5,179.5 197.5,179.5 196.5,179.5C 194.692,178.082 194.025,176.082 194.5,173.5C 192.5,173.5 190.5,173.5 188.5,173.5C 188.5,173.167 188.5,172.833 188.5,172.5C 191.119,172.768 193.619,172.435 196,171.5C 196.497,168.854 196.664,166.187 196.5,163.5C 198.308,162.082 198.975,160.082 198.5,157.5 Z"/></g>
<g><path style="opacity:1" fill="#3fa1de" d="M 244.5,142.5 C 245.167,146.833 245.833,151.167 246.5,155.5C 247.299,158.43 247.632,161.43 247.5,164.5C 250.059,164.198 252.393,164.532 254.5,165.5C 251.5,165.5 248.5,165.5 245.5,165.5C 245.5,168.5 245.5,171.5 245.5,174.5C 245.5,174.833 245.5,175.167 245.5,175.5C 245.167,175.5 244.833,175.5 244.5,175.5C 245.165,172.112 244.165,171.112 241.5,172.5C 238.58,171.414 235.58,170.748 232.5,170.5C 232.768,172.099 232.434,173.432 231.5,174.5C 231.5,172.833 231.5,171.167 231.5,169.5C 231.5,165.833 231.5,162.167 231.5,158.5C 235.167,158.5 238.833,158.5 242.5,158.5C 242.569,153.055 243.236,147.722 244.5,142.5 Z"/></g>
<g><path style="opacity:1" fill="#bbb8c9" d="M 90.5,155.5 C 92.1667,155.5 93.8333,155.5 95.5,155.5C 95.5,158.167 95.5,160.833 95.5,163.5C 95.6716,164.492 95.3382,165.158 94.5,165.5C 88.9738,165.821 83.6405,165.488 78.5,164.5C 83.5,164.5 88.5,164.5 93.5,164.5C 93.5,162.5 93.5,160.5 93.5,158.5C 92.5,158.5 91.5,158.5 90.5,158.5C 90.5,157.5 90.5,156.5 90.5,155.5 Z"/></g>
<g><path style="opacity:1" fill="#52caf4" d="M 215.5,146.5 C 215.833,146.5 216.167,146.5 216.5,146.5C 216.5,153.5 216.5,160.5 216.5,167.5C 215.685,166.571 214.852,165.571 214,164.5C 213.517,165.448 213.351,166.448 213.5,167.5C 210.833,167.5 208.167,167.5 205.5,167.5C 205.5,170.167 205.5,172.833 205.5,175.5C 204.778,175.918 204.278,176.584 204,177.5C 203.5,169.507 203.334,161.507 203.5,153.5C 204.451,154.919 204.784,156.585 204.5,158.5C 208.167,158.5 211.833,158.5 215.5,158.5C 215.5,154.5 215.5,150.5 215.5,146.5 Z"/></g>
<g><path style="opacity:1" fill="#605062" d="M 78.5,156.5 C 78.5,159.167 78.5,161.833 78.5,164.5C 83.6405,165.488 88.9738,165.821 94.5,165.5C 94.5,168.167 94.5,170.833 94.5,173.5C 89.4631,174.259 84.4631,174.259 79.5,173.5C 79.1924,172.692 78.6924,172.025 78,171.5C 77.501,167.179 77.3343,162.846 77.5,158.5C 77.3284,157.508 77.6618,156.842 78.5,156.5 Z"/></g>
<g><path style="opacity:1" fill="#55556f" d="M 141.5,153.5 C 141.5,156.5 141.5,159.5 141.5,162.5C 142.5,162.5 143.5,162.5 144.5,162.5C 144.238,161.022 144.571,159.689 145.5,158.5C 147.409,159.348 149.409,159.682 151.5,159.5C 154.871,162.871 158.537,165.871 162.5,168.5C 171.7,169.789 181.033,169.622 190.5,168C 193.321,165.859 194.654,163.025 194.5,159.5C 195.167,160.833 195.833,162.167 196.5,163.5C 196.664,166.187 196.497,168.854 196,171.5C 193.619,172.435 191.119,172.768 188.5,172.5C 184.18,171.834 179.68,171.501 175,171.5C 167.936,171.339 161.103,172.006 154.5,173.5C 151.167,173.5 147.833,173.5 144.5,173.5C 144.799,175.604 144.466,177.604 143.5,179.5C 142.525,176.848 141.192,174.514 139.5,172.5C 138.348,167.015 138.182,161.349 139,155.5C 139.417,154.244 140.25,153.577 141.5,153.5 Z"/></g>
<g><path style="opacity:1" fill="#787e9b" d="M 190.5,159.5 C 191.833,159.5 193.167,159.5 194.5,159.5C 194.654,163.025 193.321,165.859 190.5,168C 181.033,169.622 171.7,169.789 162.5,168.5C 169.175,168.666 175.842,168.5 182.5,168C 184.911,166.045 187.411,164.211 190,162.5C 190.483,161.552 190.649,160.552 190.5,159.5 Z"/></g>
<g><path style="opacity:1" fill="#a4b4cc" d="M 151.5,159.5 C 164.5,159.5 177.5,159.5 190.5,159.5C 190.649,160.552 190.483,161.552 190,162.5C 187.411,164.211 184.911,166.045 182.5,168C 175.842,168.5 169.175,168.666 162.5,168.5C 158.537,165.871 154.871,162.871 151.5,159.5 Z"/></g>
<g><path style="opacity:1" fill="#3c374c" d="M 254.5,165.5 C 254.5,167.833 254.5,170.167 254.5,172.5C 251.813,172.336 249.146,172.503 246.5,173C 249.365,173.183 252.031,173.683 254.5,174.5C 251.5,174.5 248.5,174.5 245.5,174.5C 245.5,171.5 245.5,168.5 245.5,165.5C 248.5,165.5 251.5,165.5 254.5,165.5 Z"/></g>
<g><path style="opacity:1" fill="#6f606c" d="M 254.5,165.5 C 256.833,165.5 259.167,165.5 261.5,165.5C 261.664,168.187 261.497,170.854 261,173.5C 258.959,174.423 256.792,174.756 254.5,174.5C 252.031,173.683 249.365,173.183 246.5,173C 249.146,172.503 251.813,172.336 254.5,172.5C 254.5,170.167 254.5,167.833 254.5,165.5 Z"/></g>
<g><path style="opacity:1" fill="#15264f" d="M 231.5,157.5 C 231.5,157.833 231.5,158.167 231.5,158.5C 231.5,162.167 231.5,165.833 231.5,169.5C 230.695,175.689 229.862,182.023 229,188.5C 228.427,190.641 227.594,192.641 226.5,194.5C 226.5,195.167 226.5,195.833 226.5,196.5C 223.681,194.299 222.015,191.299 221.5,187.5C 221.796,185.597 222.463,183.93 223.5,182.5C 224.876,182.253 225.71,180.919 226,178.5C 226.625,165.784 226.125,153.118 224.5,140.5C 226.129,138.94 227.296,139.273 228,141.5C 229.495,146.881 230.662,152.214 231.5,157.5 Z"/></g>
<g><path style="opacity:1" fill="#bacdd9" d="M 61.5,107.5 C 61.1671,126.179 61.5004,144.845 62.5,163.5C 63.708,166.346 65.208,169.013 67,171.5C 67.1682,152.329 67.6682,133.329 68.5,114.5C 68.5,131.5 68.5,148.5 68.5,165.5C 68.5,183.5 68.5,201.5 68.5,219.5C 67.8334,210.325 67.1667,200.991 66.5,191.5C 65.914,191.291 65.414,190.957 65,190.5C 64.6322,191.91 63.7989,192.91 62.5,193.5C 61.5014,203.812 61.1681,214.145 61.5,224.5C 60.1667,185.5 60.1667,146.5 61.5,107.5 Z"/></g>
<g><path style="opacity:1" fill="#3491cf" d="M 95.5,163.5 C 97.7593,164.344 98.7593,166.011 98.5,168.5C 101.187,168.664 103.854,168.497 106.5,168C 107.227,166.601 107.727,165.101 108,163.5C 108.198,165.382 108.698,167.048 109.5,168.5C 109.5,171.833 109.5,175.167 109.5,178.5C 106.813,178.664 104.146,178.497 101.5,178C 100.1,176.562 98.433,175.729 96.5,175.5C 96.5,176.833 96.5,178.167 96.5,179.5C 95.8333,177.5 95.1667,175.5 94.5,173.5C 94.5,170.833 94.5,168.167 94.5,165.5C 95.3382,165.158 95.6716,164.492 95.5,163.5 Z"/></g>
<g><path style="opacity:1" fill="#c3c1d0" d="M 188.5,172.5 C 188.5,172.833 188.5,173.167 188.5,173.5C 177.167,173.5 165.833,173.5 154.5,173.5C 161.103,172.006 167.936,171.339 175,171.5C 179.68,171.501 184.18,171.834 188.5,172.5 Z"/></g>
<g><path style="opacity:1" fill="#43b8f7" d="M 216.5,167.5 C 216.5,170.167 216.5,172.833 216.5,175.5C 212.833,175.5 209.167,175.5 205.5,175.5C 205.5,172.833 205.5,170.167 205.5,167.5C 208.167,167.5 210.833,167.5 213.5,167.5C 213.351,166.448 213.517,165.448 214,164.5C 214.852,165.571 215.685,166.571 216.5,167.5 Z"/></g>
<g><path style="opacity:1" fill="#142145" d="M 115.5,151.5 C 114.04,161.86 114.207,172.194 116,182.5C 116.97,184.274 117.804,186.107 118.5,188C 117.767,189.766 117.433,191.599 117.5,193.5C 117.5,194.167 117.167,194.5 116.5,194.5C 116.62,191.795 115.62,191.128 113.5,192.5C 112.824,191.398 112.158,190.398 111.5,189.5C 110.604,179.532 110.271,169.532 110.5,159.5C 112.988,157.346 114.654,154.679 115.5,151.5 Z"/></g>
<g><path style="opacity:1" fill="#1b1e35" d="M 119.5,137.5 C 119.632,140.57 119.299,143.57 118.5,146.5C 117.623,155.133 117.289,163.8 117.5,172.5C 117.628,174.09 118.295,175.423 119.5,176.5C 119.936,166.895 121.269,157.562 123.5,148.5C 123.5,157.5 123.5,166.5 123.5,175.5C 123.5,178.5 123.5,181.5 123.5,184.5C 123.5,185.5 123.5,186.5 123.5,187.5C 122.167,187.5 120.833,187.5 119.5,187.5C 119.405,189.786 118.738,191.786 117.5,193.5C 117.433,191.599 117.767,189.766 118.5,188C 117.804,186.107 116.97,184.274 116,182.5C 114.207,172.194 114.04,161.86 115.5,151.5C 115.963,148.518 116.296,145.518 116.5,142.5C 117.313,140.739 118.313,139.072 119.5,137.5 Z"/></g>
<g><path style="opacity:1" fill="#45afee" d="M 136.5,150.5 C 136.5,158.167 136.5,165.833 136.5,173.5C 136.649,174.552 136.483,175.552 136,176.5C 132.27,175.54 128.437,175.207 124.5,175.5C 124.337,173.143 124.503,170.81 125,168.5C 125.915,169.328 126.581,170.328 127,171.5C 127.308,170.692 127.808,170.025 128.5,169.5C 130.544,171.355 132.711,172.022 135,171.5C 135.499,167.179 135.666,162.846 135.5,158.5C 135.194,155.615 135.527,152.948 136.5,150.5 Z"/></g>
<g><path style="opacity:1" fill="#1a1a27" d="M 139.5,172.5 C 141.192,174.514 142.525,176.848 143.5,179.5C 144.466,177.604 144.799,175.604 144.5,173.5C 147.833,173.5 151.167,173.5 154.5,173.5C 165.833,173.5 177.167,173.5 188.5,173.5C 190.5,173.5 192.5,173.5 194.5,173.5C 194.025,176.082 194.692,178.082 196.5,179.5C 194.625,188.378 195.625,196.711 199.5,204.5C 203.514,204.666 207.514,204.499 211.5,204C 212.636,202.855 213.636,201.688 214.5,200.5C 214.579,201.93 214.246,203.264 213.5,204.5C 208.198,205.329 202.864,205.829 197.5,206C 196.692,206.308 196.025,206.808 195.5,207.5C 197.078,208.298 198.744,208.798 200.5,209C 205.901,212.811 208.567,217.811 208.5,224C 211.89,224.744 215.223,225.577 218.5,226.5C 218.227,228.451 218.893,229.951 220.5,231C 219.366,232.016 219.699,232.683 221.5,233C 229.85,233.505 238.017,234.005 246,234.5C 247.067,233.809 248.234,233.309 249.5,233C 248.376,232.751 247.376,232.251 246.5,231.5C 252.36,229.352 255.36,231.352 255.5,237.5C 251.024,237.8 249.69,239.967 251.5,244C 254.887,244.883 256.554,247.049 256.5,250.5C 255.5,250.5 254.5,250.5 253.5,250.5C 253.5,249.167 253.5,247.833 253.5,246.5C 246.027,247.952 245.694,250.285 252.5,253.5C 250.14,254.172 248.14,253.339 246.5,251C 244.19,250.503 241.857,250.337 239.5,250.5C 239.67,251.822 239.337,252.989 238.5,254C 234.179,254.499 229.846,254.666 225.5,254.5C 224.424,257.734 223.757,261.068 223.5,264.5C 222.491,266.269 225.825,266.436 233.5,265C 231.148,265.24 229.148,266.073 227.5,267.5C 227.158,268.338 226.492,268.672 225.5,268.5C 188.167,268.5 150.833,268.5 113.5,268.5C 113.5,267.833 113.167,267.5 112.5,267.5C 112.281,266.325 112.614,265.325 113.5,264.5C 115.775,263.893 118.109,263.559 120.5,263.5C 130.515,263.596 140.515,263.93 150.5,264.5C 151.078,261.631 152.078,258.965 153.5,256.5C 156.768,255.513 160.102,255.18 163.5,255.5C 162.629,252.938 162.629,250.272 163.5,247.5C 165.451,247.773 166.951,247.107 168,245.5C 168.333,246.167 168.667,246.833 169,247.5C 169.402,246.128 169.902,244.795 170.5,243.5C 165.1,240.091 159.433,239.591 153.5,242C 156.833,242.333 160.167,242.667 163.5,243C 161.5,243.167 159.5,243.333 157.5,243.5C 154.657,243.026 151.991,243.026 149.5,243.5C 148.522,243.023 147.689,242.357 147,241.5C 146.667,243.5 146.333,245.5 146,247.5C 144.542,243.501 144.042,239.501 144.5,235.5C 143.682,238.107 143.182,240.774 143,243.5C 140.959,244.423 138.792,244.756 136.5,244.5C 136.579,242.334 137.246,240.334 138.5,238.5C 138.101,236.803 137.601,235.137 137,233.5C 136.751,234.624 136.251,235.624 135.5,236.5C 135.156,230.6 132.656,225.934 128,222.5C 127.391,217.251 124.724,215.251 120,216.5C 118.836,213.865 117.669,211.198 116.5,208.5C 112.931,207.653 111.598,205.653 112.5,202.5C 110.922,201.702 109.256,201.202 107.5,201C 110.146,200.503 112.813,200.336 115.5,200.5C 115.5,199.167 115.5,197.833 115.5,196.5C 116.338,196.158 116.672,195.492 116.5,194.5C 117.167,194.5 117.5,194.167 117.5,193.5C 118.738,191.786 119.405,189.786 119.5,187.5C 120.833,187.5 122.167,187.5 123.5,187.5C 124.198,192.992 125.532,198.325 127.5,203.5C 131.795,204.661 136.129,204.828 140.5,204C 142.066,201.07 142.9,197.903 143,194.5C 143.499,189.845 143.666,185.179 143.5,180.5C 141.876,180.36 140.71,181.027 140,182.5C 139.502,179.183 139.335,175.85 139.5,172.5 Z"/></g>
<g><path style="opacity:1" fill="#297bbe" d="M 244.5,175.5 C 244.649,176.552 244.483,177.552 244,178.5C 240.744,177.652 237.411,176.985 234,176.5C 232.624,176.316 231.791,175.649 231.5,174.5C 232.434,173.432 232.768,172.099 232.5,170.5C 235.58,170.748 238.58,171.414 241.5,172.5C 244.165,171.112 245.165,172.112 244.5,175.5 Z"/></g>
<g><path style="opacity:1" fill="#2f82c2" d="M 202.5,140.5 C 203.485,144.634 203.818,148.968 203.5,153.5C 203.334,161.507 203.5,169.507 204,177.5C 204.278,176.584 204.778,175.918 205.5,175.5C 209.167,175.5 212.833,175.5 216.5,175.5C 216.5,177.833 216.5,180.167 216.5,182.5C 214.117,182.145 211.784,182.812 209.5,184.5C 208.136,183.957 206.803,183.79 205.5,184C 204.756,185.815 204.089,187.648 203.5,189.5C 202.662,189.158 202.328,188.492 202.5,187.5C 202.5,181.167 202.5,174.833 202.5,168.5C 201.558,159.188 201.558,149.855 202.5,140.5 Z"/></g>
<g><path style="opacity:1" fill="#0e152d" d="M 223.5,131.5 C 221.904,134.819 222.238,137.819 224.5,140.5C 226.125,153.118 226.625,165.784 226,178.5C 225.71,180.919 224.876,182.253 223.5,182.5C 223.323,178.766 223.656,175.099 224.5,171.5C 224.863,159.7 223.863,148.034 221.5,136.5C 221.12,134.302 221.787,132.635 223.5,131.5 Z"/></g>
<g><path style="opacity:1" fill="#293f70" d="M 200.5,163.5 C 201.167,165.167 201.833,166.833 202.5,168.5C 202.5,174.833 202.5,181.167 202.5,187.5C 201.267,191.914 199.933,196.414 198.5,201C 198.648,202.256 198.982,203.423 199.5,204.5C 195.625,196.711 194.625,188.378 196.5,179.5C 197.5,179.5 198.5,179.5 199.5,179.5C 200.098,174.187 200.431,168.854 200.5,163.5 Z"/></g>
<g><path style="opacity:1" fill="#e4c6e8" d="M 280.5,162.5 C 280.5,171.5 280.5,180.5 280.5,189.5C 279.835,187.302 279.168,184.969 278.5,182.5C 277.5,183.167 276.5,183.833 275.5,184.5C 274.509,180.555 274.176,176.555 274.5,172.5C 275.868,171.694 277.201,170.694 278.5,169.5C 279.168,167.031 279.835,164.698 280.5,162.5 Z"/></g>
<g><path style="opacity:1" fill="#2379b8" d="M 136.5,173.5 C 136.833,173.5 137.167,173.5 137.5,173.5C 138.533,178.846 138.533,184.18 137.5,189.5C 133.235,188.561 128.902,188.228 124.5,188.5C 124.768,186.901 124.434,185.568 123.5,184.5C 123.5,181.5 123.5,178.5 123.5,175.5C 123.833,175.5 124.167,175.5 124.5,175.5C 128.437,175.207 132.27,175.54 136,176.5C 136.483,175.552 136.649,174.552 136.5,173.5 Z"/></g>
<g><path style="opacity:1" fill="#236aa8" d="M 216.5,182.5 C 216.5,183.833 216.5,185.167 216.5,186.5C 215.596,187.209 215.263,188.209 215.5,189.5C 211.5,189.5 207.5,189.5 203.5,189.5C 204.089,187.648 204.756,185.815 205.5,184C 206.803,183.79 208.136,183.957 209.5,184.5C 211.784,182.812 214.117,182.145 216.5,182.5 Z"/></g>
<g><path style="opacity:1" fill="#1e528f" d="M 231.5,169.5 C 231.5,171.167 231.5,172.833 231.5,174.5C 231.791,175.649 232.624,176.316 234,176.5C 237.411,176.985 240.744,177.652 244,178.5C 244.483,177.552 244.649,176.552 244.5,175.5C 244.833,175.5 245.167,175.5 245.5,175.5C 245.116,181.524 243.783,187.19 241.5,192.5C 240.504,192.586 239.671,192.252 239,191.5C 238.517,192.448 238.351,193.448 238.5,194.5C 234.5,194.5 230.5,194.5 226.5,194.5C 227.594,192.641 228.427,190.641 229,188.5C 229.862,182.023 230.695,175.689 231.5,169.5 Z"/></g>
<g><path style="opacity:1" fill="#22619c" d="M 110.5,152.5 C 110.5,154.833 110.5,157.167 110.5,159.5C 110.271,169.532 110.604,179.532 111.5,189.5C 108.915,186.867 106.248,186.867 103.5,189.5C 101.971,189.471 100.804,188.804 100,187.5C 99.5045,189.473 99.3379,191.473 99.5,193.5C 97.0444,189.274 96.0444,184.607 96.5,179.5C 96.5,178.167 96.5,176.833 96.5,175.5C 98.433,175.729 100.1,176.562 101.5,178C 104.146,178.497 106.813,178.664 109.5,178.5C 109.5,175.167 109.5,171.833 109.5,168.5C 109.5,165.167 109.5,161.833 109.5,158.5C 109.205,156.265 109.539,154.265 110.5,152.5 Z"/></g>
<g><path style="opacity:1" fill="#dda4c1" d="M 273.5,172.5 C 273.833,172.5 274.167,172.5 274.5,172.5C 274.176,176.555 274.509,180.555 275.5,184.5C 276.5,183.833 277.5,183.167 278.5,182.5C 279.168,184.969 279.835,187.302 280.5,189.5C 280.5,193.167 280.5,196.833 280.5,200.5C 279.837,198.958 279.17,197.291 278.5,195.5C 277.264,196.246 275.93,196.579 274.5,196.5C 274.824,203.354 274.491,210.021 273.5,216.5C 273.5,201.833 273.5,187.167 273.5,172.5 Z"/></g>
<g><path style="opacity:1" fill="#184784" d="M 111.5,189.5 C 112.158,190.398 112.824,191.398 113.5,192.5C 115.62,191.128 116.62,191.795 116.5,194.5C 110.741,194.786 105.075,194.452 99.5,193.5C 99.3379,191.473 99.5045,189.473 100,187.5C 100.804,188.804 101.971,189.471 103.5,189.5C 106.248,186.867 108.915,186.867 111.5,189.5 Z"/></g>
<g><path style="opacity:1" fill="#285c89" d="M 99.5,193.5 C 105.075,194.452 110.741,194.786 116.5,194.5C 116.672,195.492 116.338,196.158 115.5,196.5C 110.489,196.666 105.489,196.499 100.5,196C 99.7476,195.329 99.4142,194.496 99.5,193.5 Z"/></g>
<g><path style="opacity:1" fill="#265d8a" d="M 241.5,192.5 C 241.489,194.017 240.823,195.184 239.5,196C 235.179,196.499 230.846,196.666 226.5,196.5C 226.5,195.833 226.5,195.167 226.5,194.5C 230.5,194.5 234.5,194.5 238.5,194.5C 238.351,193.448 238.517,192.448 239,191.5C 239.671,192.252 240.504,192.586 241.5,192.5 Z"/></g>
<g><path style="opacity:1" fill="#245892" d="M 216.5,186.5 C 216.5,186.833 216.5,187.167 216.5,187.5C 215.833,191.833 215.167,196.167 214.5,200.5C 213.636,201.688 212.636,202.855 211.5,204C 207.514,204.499 203.514,204.666 199.5,204.5C 198.982,203.423 198.648,202.256 198.5,201C 199.933,196.414 201.267,191.914 202.5,187.5C 202.328,188.492 202.662,189.158 203.5,189.5C 207.5,189.5 211.5,189.5 215.5,189.5C 215.263,188.209 215.596,187.209 216.5,186.5 Z"/></g>
<g><path style="opacity:1" fill="#295693" d="M 143.5,144.5 C 143.5,147.5 143.5,150.5 143.5,153.5C 142.833,153.5 142.167,153.5 141.5,153.5C 140.25,153.577 139.417,154.244 139,155.5C 138.182,161.349 138.348,167.015 139.5,172.5C 139.335,175.85 139.502,179.183 140,182.5C 140.71,181.027 141.876,180.36 143.5,180.5C 143.666,185.179 143.499,189.845 143,194.5C 142.9,197.903 142.066,201.07 140.5,204C 136.129,204.828 131.795,204.661 127.5,203.5C 125.532,198.325 124.198,192.992 123.5,187.5C 123.5,186.5 123.5,185.5 123.5,184.5C 124.434,185.568 124.768,186.901 124.5,188.5C 128.902,188.228 133.235,188.561 137.5,189.5C 138.533,184.18 138.533,178.846 137.5,173.5C 137.121,162.445 137.621,151.445 139,140.5C 140.011,141.337 141.178,141.67 142.5,141.5C 142.263,142.791 142.596,143.791 143.5,144.5 Z"/></g>
<g><path style="opacity:1" fill="#1f202f" d="M 77.5,158.5 C 77.3343,162.846 77.501,167.179 78,171.5C 78.6924,172.025 79.1924,172.692 79.5,173.5C 84.4631,174.259 89.4631,174.259 94.5,173.5C 95.1667,175.5 95.8333,177.5 96.5,179.5C 96.0444,184.607 97.0444,189.274 99.5,193.5C 99.4142,194.496 99.7476,195.329 100.5,196C 105.489,196.499 110.489,196.666 115.5,196.5C 115.5,197.833 115.5,199.167 115.5,200.5C 112.813,200.336 110.146,200.503 107.5,201C 109.256,201.202 110.922,201.702 112.5,202.5C 111.598,205.653 112.931,207.653 116.5,208.5C 117.669,211.198 118.836,213.865 120,216.5C 124.724,215.251 127.391,217.251 128,222.5C 132.656,225.934 135.156,230.6 135.5,236.5C 136.251,235.624 136.751,234.624 137,233.5C 137.601,235.137 138.101,236.803 138.5,238.5C 137.246,240.334 136.579,242.334 136.5,244.5C 138.792,244.756 140.959,244.423 143,243.5C 143.182,240.774 143.682,238.107 144.5,235.5C 144.042,239.501 144.542,243.501 146,247.5C 146.333,245.5 146.667,243.5 147,241.5C 147.689,242.357 148.522,243.023 149.5,243.5C 151.991,243.026 154.657,243.026 157.5,243.5C 159.5,243.333 161.5,243.167 163.5,243C 160.167,242.667 156.833,242.333 153.5,242C 159.433,239.591 165.1,240.091 170.5,243.5C 169.902,244.795 169.402,246.128 169,247.5C 168.667,246.833 168.333,246.167 168,245.5C 166.951,247.107 165.451,247.773 163.5,247.5C 162.629,250.272 162.629,252.938 163.5,255.5C 160.102,255.18 156.768,255.513 153.5,256.5C 152.078,258.965 151.078,261.631 150.5,264.5C 140.515,263.93 130.515,263.596 120.5,263.5C 118.109,263.559 115.775,263.893 113.5,264.5C 112.614,265.325 112.281,266.325 112.5,267.5C 105.405,265.954 98.7378,263.287 92.5,259.5C 87.1667,254.833 82.1667,249.833 77.5,244.5C 73.5359,237.95 70.5359,230.95 68.5,223.5C 68.5,222.167 68.5,220.833 68.5,219.5C 68.5,201.5 68.5,183.5 68.5,165.5C 70.4258,164.758 72.2591,163.758 74,162.5C 74.3333,162.833 74.6667,163.167 75,163.5C 75.3736,161.509 76.207,159.842 77.5,158.5 Z"/></g>
<g><path style="opacity:1" fill="#f59cba" d="M 280.5,200.5 C 280.5,207.167 280.5,213.833 280.5,220.5C 279.751,219.469 279.085,218.302 278.5,217C 277.833,216.333 277.167,216.333 276.5,217C 275.22,220.283 273.887,223.45 272.5,226.5C 273.051,223.193 273.384,219.86 273.5,216.5C 274.491,210.021 274.824,203.354 274.5,196.5C 275.93,196.579 277.264,196.246 278.5,195.5C 279.17,197.291 279.837,198.958 280.5,200.5 Z"/></g>
<g><path style="opacity:1" fill="#eddaf0" d="M 68.5,219.5 C 68.5,220.833 68.5,222.167 68.5,223.5C 66.6569,224.043 64.9902,223.376 63.5,221.5C 62.8243,222.602 62.1577,223.602 61.5,224.5C 61.1681,214.145 61.5014,203.812 62.5,193.5C 63.7989,192.91 64.6322,191.91 65,190.5C 65.414,190.957 65.914,191.291 66.5,191.5C 67.1667,200.991 67.8334,210.325 68.5,219.5 Z"/></g>
<g><path style="opacity:1" fill="#f287a4" d="M 280.5,220.5 C 279.734,224.832 278.9,229.166 278,233.5C 273.248,245.068 266.081,254.734 256.5,262.5C 256.5,261.167 256.5,259.833 256.5,258.5C 257.873,258.657 259.207,258.49 260.5,258C 258.58,256.878 256.58,256.044 254.5,255.5C 262.966,247.367 268.966,237.7 272.5,226.5C 273.887,223.45 275.22,220.283 276.5,217C 277.167,216.333 277.833,216.333 278.5,217C 279.085,218.302 279.751,219.469 280.5,220.5 Z"/></g>
<g><path style="opacity:1" fill="#eec2e1" d="M 68.5,223.5 C 70.5359,230.95 73.5359,237.95 77.5,244.5C 76.1779,244.33 75.0113,244.663 74,245.5C 73,244.5 72,243.5 71,242.5C 70.8648,244.922 71.3648,247.255 72.5,249.5C 66.4216,242.333 62.7549,234 61.5,224.5C 62.1577,223.602 62.8243,222.602 63.5,221.5C 64.9902,223.376 66.6569,224.043 68.5,223.5 Z"/></g>
<g><path style="opacity:1" fill="#f2b0d3" d="M 77.5,244.5 C 82.1667,249.833 87.1667,254.833 92.5,259.5C 92.5394,260.583 92.8728,261.583 93.5,262.5C 91.993,263.389 90.6597,264.389 89.5,265.5C 84.9343,263.269 80.9343,260.269 77.5,256.5C 75.4202,254.427 73.7536,252.093 72.5,249.5C 71.3648,247.255 70.8648,244.922 71,242.5C 72,243.5 73,244.5 74,245.5C 75.0113,244.663 76.1779,244.33 77.5,244.5 Z"/></g>
<g><path style="opacity:1" fill="#f17586" d="M 254.5,255.5 C 256.58,256.044 258.58,256.878 260.5,258C 259.207,258.49 257.873,258.657 256.5,258.5C 256.5,259.833 256.5,261.167 256.5,262.5C 254.853,264.326 252.853,265.66 250.5,266.5C 249.077,265.551 247.577,264.551 246,263.5C 244.234,264.233 242.401,264.567 240.5,264.5C 245.144,261.534 249.811,258.534 254.5,255.5 Z"/></g>
<g><path style="opacity:1" fill="#ef91af" d="M 92.5,259.5 C 98.7378,263.287 105.405,265.954 112.5,267.5C 113.167,267.5 113.5,267.833 113.5,268.5C 109.685,267.918 106.351,268.752 103.5,271C 104.381,271.708 105.047,272.542 105.5,273.5C 99.6494,271.778 94.3161,269.111 89.5,265.5C 90.6597,264.389 91.993,263.389 93.5,262.5C 92.8728,261.583 92.5394,260.583 92.5,259.5 Z"/></g>
<g><path style="opacity:1" fill="#eb747f" d="M 113.5,268.5 C 150.833,268.5 188.167,268.5 225.5,268.5C 218.687,269.491 211.687,269.825 204.5,269.5C 180.831,269.333 157.164,269.5 133.5,270C 136.833,270.333 140.167,270.667 143.5,271C 142.167,271.333 140.833,271.667 139.5,272C 147.5,272.333 155.5,272.667 163.5,273C 156.833,273.333 150.167,273.667 143.5,274C 161.497,274.5 179.497,274.667 197.5,274.5C 198.167,274.5 198.5,274.833 198.5,275.5C 169.498,275.667 140.498,275.5 111.5,275C 109.564,274.187 107.564,273.687 105.5,273.5C 105.047,272.542 104.381,271.708 103.5,271C 106.351,268.752 109.685,267.918 113.5,268.5 Z"/></g>
<g><path style="opacity:1" fill="#f36867" d="M 250.5,266.5 C 245.677,269.843 240.343,272.343 234.5,274C 222.543,275.338 210.543,275.838 198.5,275.5C 198.5,274.833 198.167,274.5 197.5,274.5C 197.918,273.778 198.584,273.278 199.5,273C 199.167,272.667 198.833,272.333 198.5,272C 200.723,271.434 202.723,270.6 204.5,269.5C 211.687,269.825 218.687,269.491 225.5,268.5C 226.492,268.672 227.158,268.338 227.5,267.5C 231.978,267.118 236.311,266.118 240.5,264.5C 242.401,264.567 244.234,264.233 246,263.5C 247.577,264.551 249.077,265.551 250.5,266.5 Z"/></g>
<g><path style="opacity:1" fill="#fa7181" d="M 204.5,269.5 C 202.723,270.6 200.723,271.434 198.5,272C 198.833,272.333 199.167,272.667 199.5,273C 198.584,273.278 197.918,273.778 197.5,274.5C 179.497,274.667 161.497,274.5 143.5,274C 150.167,273.667 156.833,273.333 163.5,273C 155.5,272.667 147.5,272.333 139.5,272C 140.833,271.667 142.167,271.333 143.5,271C 140.167,270.667 136.833,270.333 133.5,270C 157.164,269.5 180.831,269.333 204.5,269.5 Z"/></g>
</svg>
